<?xml version="1.0" encoding="utf-8"?>
<!-- Generator: Adobe Illustrator 15.0.0, SVG Export Plug-In . SVG Version: 6.00 Build 0)  -->
<!DOCTYPE svg PUBLIC "-//W3C//DTD SVG 1.1//EN" "http://www.w3.org/Graphics/SVG/1.1/DTD/svg11.dtd">
<svg version="1.1" id="レイヤー_1" xmlns="http://www.w3.org/2000/svg" xmlns:xlink="http://www.w3.org/1999/xlink" x="0px"
	 y="0px" width="800px" height="133.142px" viewBox="0 0 800 133.142" enable-background="new 0 0 800 133.142"
	 xml:space="preserve">
<g>
	<path d="M54.349,47.086c-3.2,0-5.733,0.711-7.6,2.133c-1.866,1.422-2.8,3.377-2.8,5.866c0,2.43,1.169,4.459,3.511,6.088
		c2.34,1.63,5.613,3.244,9.821,4.844c3.199,1.126,5.939,2.416,8.221,3.867c2.281,1.453,4.162,3.422,5.644,5.91
		c1.48,2.489,2.222,5.63,2.222,9.422c0,3.437-0.859,6.547-2.577,9.333c-1.719,2.786-4.208,5.008-7.466,6.666
		c-3.26,1.659-7.111,2.489-11.555,2.489c-3.911,0-7.763-0.609-11.554-1.822c-3.792-1.214-7.17-2.889-10.132-5.021l4.622-8.089
		c2.191,1.66,4.784,3.038,7.777,4.133c2.991,1.097,5.762,1.645,8.31,1.645c3.141,0,5.896-0.756,8.266-2.267
		c2.369-1.511,3.555-3.836,3.555-6.978c0-2.489-0.993-4.562-2.978-6.222c-1.985-1.658-4.755-3.168-8.31-4.533
		c-3.675-1.362-6.726-2.71-9.155-4.044c-2.431-1.333-4.519-3.2-6.266-5.6c-1.749-2.399-2.622-5.406-2.622-9.021
		c0-5.273,1.792-9.524,5.377-12.754c3.584-3.229,8.311-4.962,14.176-5.2c4.267,0,8.013,0.489,11.244,1.467
		c3.229,0.978,6.235,2.355,9.021,4.133l-3.911,7.91C63.621,48.539,58.673,47.086,54.349,47.086z"/>
	<path d="M116.741,66.951c2.34,2.104,3.54,4.815,3.6,8.132v27.909h-9.955V78.639c-0.12-1.955-0.697-3.495-1.733-4.622
		c-1.038-1.125-2.593-1.718-4.667-1.777c-3.082,0-5.615,1.333-7.599,4c-1.986,2.666-2.978,6.014-2.978,10.043v16.71h-9.955V33.665
		h9.777v38.13c1.422-2.429,3.392-4.369,5.911-5.821c2.518-1.452,5.466-2.178,8.843-2.178
		C111.482,63.796,114.4,64.848,116.741,66.951z"/>
	<path d="M131.281,73.573c1.807-3.08,4.311-5.496,7.51-7.244c3.2-1.747,6.844-2.622,10.933-2.622c4.088,0,7.717,0.875,10.888,2.622
		c3.169,1.749,5.613,4.148,7.333,7.199c1.718,3.053,2.577,6.475,2.577,10.267c0,3.792-0.859,7.214-2.577,10.266
		c-1.719,3.052-4.164,5.466-7.333,7.243c-3.171,1.777-6.83,2.667-10.977,2.667c-4.03,0-7.644-0.815-10.843-2.444
		c-3.2-1.629-5.704-3.969-7.51-7.021c-1.808-3.051-2.711-6.622-2.711-10.709C128.57,80.061,129.473,76.654,131.281,73.573z
		 M141.724,92.371c2.074,2.281,4.651,3.422,7.732,3.422c3.2,0,5.822-1.125,7.866-3.377c2.045-2.251,3.066-5.096,3.066-8.533
		c0-3.436-1.021-6.295-3.066-8.577c-2.044-2.28-4.666-3.422-7.866-3.422c-3.082,0-5.659,1.171-7.732,3.511
		c-2.075,2.341-3.111,5.171-3.111,8.488C138.613,87.26,139.649,90.091,141.724,92.371z"/>
	<path d="M214.739,65.396v37.597h-8.977l-0.623-6.755c-1.304,2.549-3.23,4.578-5.777,6.089c-2.549,1.511-5.453,2.266-8.71,2.266
		c-3.437,0-6.297-1.052-8.577-3.155c-2.282-2.103-3.453-4.813-3.511-8.133V65.396h9.955v24.354c0.178,4.148,2.222,6.252,6.133,6.31
		c2.902,0,5.318-1.333,7.244-3.999c1.925-2.667,2.889-6.013,2.889-10.044V65.396H214.739z"/>
	<path d="M238.568,48.864v16.532h9.777v7.821h-9.777v29.775h-9.955V73.217h-6.488v-7.821h6.488V48.864H238.568z"/>
	<path d="M295.166,65.396v37.597h-9.955V97.57c-1.364,1.6-3.2,3.066-5.511,4.399c-2.311,1.333-5.008,2-8.088,2
		c-3.615,0-6.844-0.755-9.688-2.266c-2.844-1.511-5.097-3.747-6.755-6.711c-1.66-2.962-2.489-6.546-2.489-10.754
		c0-4.088,0.858-7.688,2.577-10.799c1.718-3.111,4.014-5.511,6.888-7.199c2.874-1.689,6.029-2.534,9.466-2.534
		c6.103,0,10.666,2.253,13.688,6.755l0.711-5.066H295.166z M281.255,93.704c1.867-1.392,3.185-3.362,3.956-5.911v-8.177
		c-0.711-2.311-2.089-4.177-4.133-5.6c-2.044-1.422-4.399-2.133-7.065-2.133c-3.142,0-5.808,1.111-8,3.333
		c-2.193,2.222-3.289,5.052-3.289,8.488c0,2.252,0.533,4.297,1.6,6.133c1.066,1.837,2.489,3.288,4.267,4.355
		c1.777,1.066,3.702,1.6,5.777,1.6C277.092,95.793,279.389,95.097,281.255,93.704z"/>
	<path d="M355.755,105.836l-15.287-38.574l-17.154,38.752l-25.864-67.372h12.088l15.109,43.196l10.755-27.553l-6.222-15.643h10.221
		l16.621,41.952l13.865-41.952h11.11L355.755,105.836z"/>
	<path d="M417.357,87.793h-23.554l-6.222,15.199h-10.221l28.62-67.372h0.622l28.619,67.372h-11.91L417.357,87.793z M413.891,78.905
		l-8.087-20.442l-8.355,20.442H413.891z"/>
	<path d="M475.947,38.287v9.955h-16.71v54.75h-10.31v-54.75h-16.266v-9.955H475.947z"/>
	<path d="M513.134,87.793H489.58l-6.222,15.199h-10.222l28.621-67.372h0.621l28.619,67.372h-11.909L513.134,87.793z M509.668,78.905
		l-8.089-20.442l-8.354,20.442H509.668z"/>
	<path d="M596.61,38.287v67.016h-0.267l-46.662-45.24l0.267,42.929H539.46V36.065h0.533l46.484,45.773l-0.179-43.551H596.61z"/>
	<path d="M645.103,87.793h-23.554l-6.222,15.199h-10.222l28.62-67.372h0.622l28.619,67.372h-11.909L645.103,87.793z M641.637,78.905
		l-8.09-20.442l-8.354,20.442H641.637z"/>
	<path d="M710.58,75.35c2.045,2.608,3.066,5.63,3.066,9.066c0,6.281-2.119,10.947-6.355,13.998
		c-4.237,3.053-9.466,4.578-15.688,4.578h-20.175V38.287h17.688c6.754,0,11.998,1.378,15.731,4.133
		c3.732,2.755,5.599,6.799,5.599,12.132c0,3.378-0.726,6.297-2.177,8.755c-1.453,2.459-3.511,4.43-6.178,5.911
		C705.705,70.699,708.535,72.744,710.58,75.35z M681.827,65.84h8.978c2.962,0,5.199-0.858,6.71-2.578
		c1.511-1.718,2.267-3.88,2.267-6.488c0-2.845-0.904-4.978-2.712-6.399c-1.808-1.422-4.31-2.133-7.51-2.133h-7.732V65.84z
		 M699.691,91.127c2.192-1.511,3.289-3.718,3.289-6.622c0-3.08-1.199-5.303-3.6-6.666c-2.399-1.362-5.377-2.044-8.932-2.044h-8.622
		v17.599h9.332C694.655,93.393,697.499,92.637,699.691,91.127z"/>
	<path d="M768.672,38.287v9.955h-32.53v17.243h28.975v9.955h-28.975v17.598h33.775v9.955h-44.174V38.287H768.672z"/>
</g>
</svg>
